# xmcd CD database file
#
# Track frame offsets:
#	150
#	15010
#	30760
#	45830
#	72000
#	85205
#	105225
#	121727
#	138902
#	153752
#	169572
#	180822
#
# Disc length: 2638 seconds
#
# Revision: 0
# Processed by: cddbd v1.5.2PL0 Copyright (c) Steve Scherf et al.
# Submitted via: CDex 1.51
#
DISCID=670a4c0c
DTITLE=Mário de Melo - Leila
DYEAR=1995
DGENRE=Merengue
TTITLE0=Leila
TTITLE1=Rótcha Scribida
TTITLE2=Ratchám Nha Camisa
TTITLE3=Tempo de Caniquinha
TTITLE4=Pega Malandro
TTITLE5=Trás d'Horizonte
TTITLE6=Estanhadinha
TTITLE7=Nôte di Mindelo
TTITLE8=Sábi na Mundo
TTITLE9=Camim di S. Tomé
TTITLE10=Pulí Rua
TTITLE11=Ingénua
EXTD=YEAR: 1995
EXTT0=
EXTT1=
EXTT2=
EXTT3=
EXTT4=
EXTT5=
EXTT6=
EXTT7=
EXTT8=
EXTT9=
EXTT10=
EXTT11=
PLAYORDER=
